<svg width="67" height="68" viewBox="0 0 67 68" fill="none" xmlns="http://www.w3.org/2000/svg">
<g filter="url(#filter0_d_13_242)">
<rect width="64" height="64" rx="32" fill="#8CE6DB"/>
<path d="M26.518 47.9998C23.771 48.0211 21.3103 46.3045 20.3818 43.719C19.4534 41.1335 20.26 38.2436 22.3931 36.5126C20.8801 35.288 20.0011 33.4457 20.0011 31.4992C20.0011 29.5527 20.8801 27.7104 22.3931 26.4858C20.2593 24.7554 19.4522 21.8653 20.3808 19.2797C21.3094 16.6941 23.7708 14.9779 26.518 15.0002H36.5992C39.3464 14.9779 41.8078 16.6941 42.7364 19.2797C43.665 21.8653 42.858 24.7554 40.7241 26.4858C42.8574 28.2168 43.6639 31.1067 42.7354 33.6922C41.807 36.2777 39.3464 37.9943 36.5992 37.9728C35.3304 37.9745 34.0888 37.605 33.0271 36.9102V41.5301C33.0117 45.1122 30.1 48.0061 26.518 47.9998ZM26.4817 37.9745C24.5274 38.0053 22.9652 39.6093 22.9857 41.5636C23.0062 43.5182 24.6017 45.0889 26.5562 45.0789C28.5108 45.0686 30.09 43.4814 30.0901 41.5268V37.9745H26.4801H26.4817ZM36.6009 27.9477C34.6414 27.9577 33.0601 29.5526 33.0667 31.5121C33.0734 33.4716 34.6656 35.0557 36.6251 35.0524C38.5846 35.0491 40.1714 33.4597 40.1714 31.5C40.1641 29.5334 38.566 27.944 36.5992 27.9477H36.6009ZM26.5197 27.9476C25.2505 27.9409 24.0742 28.6118 23.4338 29.7075C22.7933 30.8031 22.7861 32.1574 23.4148 33.2599C24.0435 34.3624 25.2126 35.0456 26.4817 35.0524H30.0901V27.9476H26.5197ZM33.0271 17.9209V25.0273H36.5976C38.5074 25.0362 40.0833 23.5347 40.1665 21.6267V22.3444V21.4732C40.1584 19.5089 38.5637 17.9209 36.5992 17.9209H33.0271ZM26.5164 17.9209C25.2472 17.9209 24.0745 18.5979 23.4399 19.697C22.8054 20.7962 22.8054 22.1503 23.4399 23.2494C24.0745 24.3485 25.2472 25.0256 26.5164 25.0256H30.0901V17.9209H26.5164Z" fill="black"/>
<rect x="0.5" y="0.5" width="63" height="63" rx="31.5" stroke="#133834"/>
</g>
<defs>
<filter id="filter0_d_13_242" x="0" y="0" width="67" height="68" filterUnits="userSpaceOnUse" color-interpolation-filters="sRGB">
<feFlood flood-opacity="0" result="BackgroundImageFix"/>
<feColorMatrix in="SourceAlpha" type="matrix" values="0 0 0 0 0 0 0 0 0 0 0 0 0 0 0 0 0 0 127 0" result="hardAlpha"/>
<feOffset dx="3" dy="4"/>
<feComposite in2="hardAlpha" operator="out"/>
<feColorMatrix type="matrix" values="0 0 0 0 0.0555986 0 0 0 0 0.149942 0 0 0 0 0.140011 0 0 0 1 0"/>
<feBlend mode="normal" in2="BackgroundImageFix" result="effect1_dropShadow_13_242"/>
<feBlend mode="normal" in="SourceGraphic" in2="effect1_dropShadow_13_242" result="shape"/>
</filter>
</defs>
</svg>
