<svg width="67" height="68" viewBox="0 0 67 68" fill="none" xmlns="http://www.w3.org/2000/svg">
<g filter="url(#filter0_d_12_233)">
<rect width="64" height="64" rx="32" fill="#8CE6DB"/>
<path d="M31.4991 15C23.4076 14.999 16.5098 20.8357 15.2143 28.7798C13.9188 36.724 18.608 44.43 26.2851 46.9728C27.1119 47.1208 27.408 46.6159 27.408 46.1817C27.408 45.7919 27.3947 44.7589 27.3898 43.3856C22.8008 44.3724 21.8317 41.1848 21.8317 41.1848C21.5296 40.193 20.8801 39.3415 20.0011 38.7851C18.5128 37.767 20.1152 37.79 20.1152 37.79C21.1746 37.9344 22.1071 38.559 22.6404 39.4809C23.0917 40.2972 23.8521 40.9003 24.7526 41.1562C25.6531 41.4123 26.6192 41.3 27.4361 40.8444C27.5128 40.0121 27.8851 39.2343 28.4861 38.6502C24.8249 38.2374 20.9751 36.8295 20.9751 30.5415C20.9548 28.9151 21.562 27.3429 22.6718 26.1483C22.1696 24.7327 22.2288 23.1799 22.8372 21.8061C22.8372 21.8061 24.2213 21.3636 27.3716 23.4854C30.0735 22.7486 32.925 22.7486 35.6268 23.4854C38.7787 21.362 40.1612 21.8061 40.1612 21.8061C40.7724 23.1792 40.8316 24.7331 40.3266 26.1483C41.4405 27.3428 42.0472 28.9191 42.0199 30.5481C42.0199 36.8525 38.1668 38.2374 34.4923 38.6437C35.2849 39.4498 35.6916 40.5554 35.6086 41.6799C35.6086 43.8741 35.5887 45.6438 35.5887 46.1817C35.5887 46.6208 35.8831 47.1307 36.7248 46.9695C44.3988 44.4224 49.083 36.716 47.7847 28.7739C46.4865 20.8318 39.5892 14.9982 31.4991 15Z" fill="black"/>
<rect x="0.5" y="0.5" width="63" height="63" rx="31.5" stroke="#133834"/>
</g>
<defs>
<filter id="filter0_d_12_233" x="0" y="0" width="67" height="68" filterUnits="userSpaceOnUse" color-interpolation-filters="sRGB">
<feFlood flood-opacity="0" result="BackgroundImageFix"/>
<feColorMatrix in="SourceAlpha" type="matrix" values="0 0 0 0 0 0 0 0 0 0 0 0 0 0 0 0 0 0 127 0" result="hardAlpha"/>
<feOffset dx="3" dy="4"/>
<feComposite in2="hardAlpha" operator="out"/>
<feColorMatrix type="matrix" values="0 0 0 0 0.0555986 0 0 0 0 0.149942 0 0 0 0 0.140011 0 0 0 1 0"/>
<feBlend mode="normal" in2="BackgroundImageFix" result="effect1_dropShadow_12_233"/>
<feBlend mode="normal" in="SourceGraphic" in2="effect1_dropShadow_12_233" result="shape"/>
</filter>
</defs>
</svg>
