<svg width="67" height="68" viewBox="0 0 67 68" fill="none" xmlns="http://www.w3.org/2000/svg">
<g filter="url(#filter0_d_13_248)">
<rect width="64" height="64" rx="32" fill="#8CE6DB"/>
<path d="M48 48H15V15H48V48ZM26.1833 41.092L23.6753 42.6393C24.0662 43.4972 24.6997 44.2219 25.4977 44.7238C26.3645 45.2207 27.3495 45.474 28.3485 45.4572C28.8725 45.4535 29.3944 45.3921 29.905 45.2738C30.9731 45.0111 31.8786 44.3057 32.3947 43.3342C32.9089 42.1242 33.0985 40.8009 32.9447 39.4952C32.9447 39.2458 32.9447 38.991 32.9447 38.7343C32.9538 36.8515 32.9447 34.9357 32.9447 33.0803C32.9447 32.1343 32.9447 31.1865 32.9447 30.2368V30.1598H29.85C29.85 31.4908 29.85 32.8187 29.85 34.1437C29.85 35.4765 29.85 36.8075 29.85 38.1422C29.85 38.4832 29.85 38.8168 29.85 39.1377C29.942 40.0527 29.8757 40.9769 29.6538 41.8693C29.3875 42.3834 28.8395 42.6881 28.2623 42.643C28.0038 42.6423 27.7468 42.6034 27.4997 42.5275C27.0031 42.2679 26.6029 41.8561 26.3575 41.3523L26.297 41.2497C26.2402 41.1525 26.2017 41.0847 26.1833 41.0847V41.092ZM37.0898 40.7253L34.5727 42.1682C34.7787 42.6192 35.0631 43.03 35.4123 43.3818C35.4985 43.4772 35.5957 43.5798 35.6855 43.6935C36.9164 44.7942 38.525 45.3769 40.1753 45.3197C42.311 45.5301 44.3287 44.3038 45.1253 42.3112V42.2965C45.334 41.5641 45.3673 40.7928 45.2225 40.0452L45.2848 40.135C45.0135 38.4318 43.7797 37.2493 41.1562 36.1842C40.9527 36.0888 40.7418 36.0008 40.5365 35.9092C39.7207 35.5572 38.9507 35.2272 38.683 34.6258C38.5637 34.3166 38.542 33.9781 38.6207 33.656C38.8104 33.0108 39.433 32.5925 40.102 32.6605C40.3062 32.6605 40.5094 32.6902 40.7052 32.7485C41.3085 32.9518 41.7966 33.4026 42.0472 33.9878C43.468 33.0583 43.468 33.0583 44.4598 32.4405C44.2329 32.0531 43.963 31.6929 43.655 31.3662C42.7139 30.3573 41.3635 29.8333 39.9883 29.9435H39.7683L38.8003 30.0663C37.8912 30.2704 37.0688 30.7537 36.4482 31.4487C35.7187 32.3609 35.3902 33.5301 35.5375 34.6889C35.6851 35.8477 36.2962 36.8972 37.231 37.5977C38.034 38.1473 38.9001 38.5983 39.8105 38.9415C40.9857 39.4365 41.9995 39.8582 42.2048 40.63C42.3291 41.077 42.2375 41.5564 41.9573 41.9262C41.4596 42.4177 40.7712 42.6655 40.0745 42.6045C39.8827 42.6039 39.691 42.5917 39.5007 42.5678C38.4639 42.3356 37.5812 41.66 37.0862 40.7198L37.0898 40.7253Z" fill="black"/>
<rect x="0.5" y="0.5" width="63" height="63" rx="31.5" stroke="#133834"/>
</g>
<defs>
<filter id="filter0_d_13_248" x="0" y="0" width="67" height="68" filterUnits="userSpaceOnUse" color-interpolation-filters="sRGB">
<feFlood flood-opacity="0" result="BackgroundImageFix"/>
<feColorMatrix in="SourceAlpha" type="matrix" values="0 0 0 0 0 0 0 0 0 0 0 0 0 0 0 0 0 0 127 0" result="hardAlpha"/>
<feOffset dx="3" dy="4"/>
<feComposite in2="hardAlpha" operator="out"/>
<feColorMatrix type="matrix" values="0 0 0 0 0.0555986 0 0 0 0 0.149942 0 0 0 0 0.140011 0 0 0 1 0"/>
<feBlend mode="normal" in2="BackgroundImageFix" result="effect1_dropShadow_13_248"/>
<feBlend mode="normal" in="SourceGraphic" in2="effect1_dropShadow_13_248" result="shape"/>
</filter>
</defs>
</svg>
