<svg width="67" height="68" viewBox="0 0 67 68" fill="none" xmlns="http://www.w3.org/2000/svg">
<g filter="url(#filter0_d_16_298)">
<g clip-path="url(#clip0_16_298)">
<g filter="url(#filter1_d_16_298)">
<rect width="64" height="64" fill="#8CE6DB"/>
</g>
<path d="M5.73337 44.7468H9.92003C10.0105 44.7478 10.0982 44.7158 10.1668 44.657C10.2355 44.5981 10.2805 44.5163 10.2934 44.4268L11.2267 39.5735H14.48C15.8419 39.6076 17.2007 39.4276 18.5067 39.0402C19.5649 38.6902 20.5309 38.1069 21.3334 37.3335C22.0541 36.6856 22.6584 35.9189 23.12 35.0668C23.5766 34.2332 23.9005 33.3335 24.08 32.4002C24.3634 31.4217 24.412 30.3902 24.222 29.3895C24.0321 28.3887 23.6089 27.4468 22.9867 26.6402C22.2658 25.9077 21.3934 25.3419 20.4305 24.9826C19.4677 24.6232 18.4379 24.4791 17.4134 24.5602H9.41337C9.3174 24.5645 9.2257 24.6011 9.15311 24.664C9.08052 24.7269 9.03128 24.8125 9.01337 24.9068L5.33337 44.2668C5.2926 44.3788 5.2926 44.5015 5.33337 44.6135C5.38425 44.6665 5.44724 44.7063 5.51692 44.7295C5.5866 44.7527 5.66088 44.7587 5.73337 44.7468ZM13.3334 28.3202H16C16.5074 28.252 17.0232 28.2853 17.5176 28.418C18.012 28.5508 18.4751 28.7804 18.88 29.0935C19.3334 29.5735 19.4134 30.4802 19.1734 31.7602C19.0397 32.9053 18.5005 33.9648 17.6534 34.7468C16.5972 35.4156 15.3529 35.7243 14.1067 35.6268H11.9734L13.3334 28.3202ZM39.4667 25.7868C38.023 24.7255 36.2355 24.2406 34.4534 24.4268H31.28L32.16 19.7335C32.186 19.6794 32.1995 19.6202 32.1995 19.5602C32.1995 19.5002 32.186 19.4409 32.16 19.3868C32.0653 19.3522 31.9614 19.3522 31.8667 19.3868H27.68C27.5896 19.3859 27.5019 19.4178 27.4332 19.4767C27.3646 19.5356 27.3196 19.6173 27.3067 19.7068L23.6267 39.0935C23.601 39.1429 23.5876 39.1978 23.5876 39.2535C23.5876 39.3092 23.601 39.3641 23.6267 39.4135C23.6582 39.4627 23.7015 39.5032 23.7528 39.5312C23.8041 39.5592 23.8616 39.5737 23.92 39.5735H28.0267C28.1213 39.5737 28.2124 39.5381 28.2817 39.4738C28.351 39.4094 28.3933 39.3212 28.4 39.2268L30.4534 28.3735H33.4134C34.6134 28.3735 35.04 28.6402 35.1734 28.8002C35.2819 29.0623 35.3378 29.3432 35.3378 29.6268C35.3378 29.9105 35.2819 30.1914 35.1734 30.4535L33.5467 39.0935C33.521 39.1429 33.5076 39.1978 33.5076 39.2535C33.5076 39.3092 33.521 39.3641 33.5467 39.4135C33.5798 39.4611 33.6236 39.5004 33.6745 39.5282C33.7254 39.5559 33.7821 39.5715 33.84 39.5735H38C38.096 39.5692 38.1877 39.5326 38.2603 39.4697C38.3329 39.4068 38.3821 39.3212 38.4 39.2268L40.1067 30.1602C40.3821 29.4372 40.4678 28.6557 40.3558 27.8902C40.2438 27.1247 39.9377 26.4006 39.4667 25.7868ZM51.52 24.4268H43.1734C43.1243 24.4232 43.075 24.4293 43.0283 24.4448C42.9817 24.4603 42.9385 24.4848 42.9013 24.517C42.8641 24.5492 42.8337 24.5885 42.8117 24.6325C42.7898 24.6765 42.7767 24.7244 42.7734 24.7735L38.88 44.2668C38.8558 44.3214 38.8432 44.3805 38.8432 44.4402C38.8432 44.4999 38.8558 44.5589 38.88 44.6135C38.9159 44.6562 38.9608 44.6904 39.0116 44.7135C39.0623 44.7365 39.1176 44.7479 39.1734 44.7468H43.52C43.6149 44.7546 43.7092 44.7257 43.7836 44.6663C43.8579 44.6068 43.9067 44.5211 43.92 44.4268L44.9067 39.5735H48.2934C49.6989 39.6044 51.1011 39.4246 52.4534 39.0402C53.6177 38.7163 54.6935 38.1328 55.6 37.3335C56.3445 36.6875 56.9754 35.9213 57.4667 35.0668C57.9318 34.2345 58.2647 33.3348 58.4534 32.4002C58.744 31.4208 58.794 30.3858 58.599 29.383C58.404 28.3802 57.9698 27.4393 57.3334 26.6402C56.5794 25.8765 55.6702 25.2836 54.6672 24.9018C53.6643 24.5199 52.591 24.358 51.52 24.4268ZM53.1734 31.8135C53.0139 32.9682 52.4463 34.0277 51.5734 34.8002C50.4791 35.4719 49.2002 35.78 47.92 35.6802H45.7867L47.2267 28.3202H49.8934C50.9593 28.1895 52.0354 28.4657 52.9067 29.0935C53.3334 29.5735 53.3334 30.4802 53.1734 31.8135Z" fill="black"/>
</g>
<rect x="0.5" y="0.5" width="63" height="63" rx="31.5" stroke="#133834" shape-rendering="crispEdges"/>
</g>
<defs>
<filter id="filter0_d_16_298" x="0" y="0" width="67" height="68" filterUnits="userSpaceOnUse" color-interpolation-filters="sRGB">
<feFlood flood-opacity="0" result="BackgroundImageFix"/>
<feColorMatrix in="SourceAlpha" type="matrix" values="0 0 0 0 0 0 0 0 0 0 0 0 0 0 0 0 0 0 127 0" result="hardAlpha"/>
<feOffset dx="3" dy="4"/>
<feComposite in2="hardAlpha" operator="out"/>
<feColorMatrix type="matrix" values="0 0 0 0 0.0555986 0 0 0 0 0.149942 0 0 0 0 0.140011 0 0 0 1 0"/>
<feBlend mode="normal" in2="BackgroundImageFix" result="effect1_dropShadow_16_298"/>
<feBlend mode="normal" in="SourceGraphic" in2="effect1_dropShadow_16_298" result="shape"/>
</filter>
<filter id="filter1_d_16_298" x="0" y="0" width="67" height="68" filterUnits="userSpaceOnUse" color-interpolation-filters="sRGB">
<feFlood flood-opacity="0" result="BackgroundImageFix"/>
<feColorMatrix in="SourceAlpha" type="matrix" values="0 0 0 0 0 0 0 0 0 0 0 0 0 0 0 0 0 0 127 0" result="hardAlpha"/>
<feOffset dx="3" dy="4"/>
<feComposite in2="hardAlpha" operator="out"/>
<feColorMatrix type="matrix" values="0 0 0 0 0.0555986 0 0 0 0 0.149942 0 0 0 0 0.140011 0 0 0 1 0"/>
<feBlend mode="normal" in2="BackgroundImageFix" result="effect1_dropShadow_16_298"/>
<feBlend mode="normal" in="SourceGraphic" in2="effect1_dropShadow_16_298" result="shape"/>
</filter>
<clipPath id="clip0_16_298">
<rect width="64" height="64" rx="32" fill="white"/>
</clipPath>
</defs>
</svg>
