<svg width="67" height="68" viewBox="0 0 67 68" fill="none" xmlns="http://www.w3.org/2000/svg">
<g filter="url(#filter0_d_16_317)">
<circle cx="32" cy="32" r="32" fill="#8CE6DB"/>
<circle cx="32" cy="32" r="31.5" stroke="#133834"/>
</g>
<path d="M49 32.5039C49 30.0489 46.1794 27.7221 41.8543 26.28C42.8531 21.4766 42.4097 17.6536 40.4547 16.4292C39.981 16.1401 39.4448 15.9945 38.902 16.0077V17.6907C39.2207 17.6907 39.4772 17.7602 39.6925 17.8883C40.6346 18.4781 41.044 20.72 40.7253 23.6058C40.6488 24.316 40.5241 25.0633 40.3711 25.826C38.9227 25.4457 37.4528 25.1707 35.9709 25.0031C35.0881 23.6757 34.125 22.414 33.088 21.2265C35.3476 18.9382 37.4683 17.6845 38.9105 17.6845V16C37.0037 16 34.5089 17.4807 31.9858 20.0484C29.4642 17.4977 26.968 16.0309 25.0626 16.0309V17.7138C26.4977 17.7138 28.6255 18.9614 30.8851 21.2342C29.9147 22.3459 28.9443 23.6058 28.022 25.0031C26.5371 25.1689 25.0645 25.4464 23.6147 25.8338C23.4615 25.1108 23.341 24.3802 23.2535 23.6444C22.9277 20.7571 23.33 18.5152 24.2664 17.9192C24.4732 17.7833 24.7438 17.7216 25.0626 17.7216V16.0386C24.4817 16.0386 23.9533 16.1745 23.4972 16.4601C21.5493 17.6845 21.1129 21.4982 22.1173 26.2877C17.8064 27.7391 15 30.0566 15 32.5039C15 34.9588 17.8206 37.2856 22.1457 38.7262C21.1469 43.5311 21.5903 47.3541 23.5453 48.5769C23.9958 48.8641 24.5228 49 25.1037 49C27.0105 49 29.5052 47.5193 32.0283 44.9516C34.55 47.5039 37.0447 48.9691 38.9516 48.9691C39.4986 48.9817 40.0388 48.8357 40.517 48.5461C42.4649 47.3232 42.9012 43.5095 41.8968 38.72C46.1936 37.2779 49 34.9511 49 32.5039ZM39.9758 27.4658C39.7066 28.4753 39.3946 29.4707 39.0408 30.4488C38.4616 29.2209 37.8257 28.0259 37.1354 26.8682C38.12 27.0273 39.0692 27.2234 39.9772 27.4658H39.9758ZM36.8025 35.51C36.2836 36.4974 35.7264 37.4602 35.1322 38.3958C33.0529 38.5955 30.9616 38.5981 28.8819 38.4035C27.689 36.5463 26.6458 34.5802 25.7638 32.527C26.6444 30.469 27.6832 28.4959 28.8692 26.6289C30.948 26.4288 33.0388 26.4257 35.1181 26.6197C35.6933 27.5183 36.2557 28.4786 36.7954 29.4915C37.3224 30.4797 37.8012 31.4833 38.2376 32.4961C37.7964 33.5213 37.3177 34.5267 36.8025 35.51ZM39.0408 34.528C39.4148 35.5394 39.735 36.5522 39.9971 37.5342C39.0904 37.7766 38.1327 37.9804 37.1425 38.1379C37.8299 36.9698 38.4635 35.765 39.0408 34.528ZM32.0142 42.5878C31.3696 41.8621 30.725 41.0546 30.0875 40.1698C30.7108 40.2007 31.3483 40.2239 31.9929 40.2239C32.6446 40.2239 33.2892 40.2084 33.9196 40.1698C33.2962 41.0546 32.6517 41.8621 32.0142 42.5878ZM26.8575 38.1379C25.9023 37.9871 24.954 37.7882 24.0157 37.5419C24.2721 36.5677 24.5908 35.5625 24.9507 34.5589C25.2354 35.1611 25.5343 35.7663 25.8602 36.3716C26.186 36.9753 26.5175 37.5651 26.8575 38.1379ZM31.9787 22.42C32.6233 23.1457 33.2679 23.9532 33.9054 24.8379C33.2821 24.807 32.6446 24.7838 32 24.7838C31.3483 24.7838 30.7037 24.7993 30.0733 24.8379C30.6967 23.9532 31.3412 23.1457 31.9787 22.42ZM26.8504 26.8698C26.1631 28.0354 25.5296 29.2376 24.9521 30.472C24.5883 29.4876 24.2692 28.4843 23.9958 27.4658C24.9025 27.2311 25.8602 27.0273 26.8504 26.8698ZM20.5788 36.3253C18.1252 35.1858 16.5385 33.6897 16.5385 32.5039C16.5385 31.3181 18.1252 29.8142 20.5788 28.6825C21.1738 28.403 21.8255 28.1529 22.4984 27.9197C22.8937 29.3989 23.4136 30.9398 24.0568 32.5193C23.4495 34.0049 22.936 35.5339 22.5197 37.0957C21.8616 36.8736 21.2138 36.6165 20.5788 36.3253ZM24.3075 47.1179C23.3654 46.5311 22.956 44.2862 23.2747 41.402C23.3512 40.6917 23.4759 39.9429 23.6289 39.1801C24.9861 39.543 26.4693 39.8224 28.0291 40.0046C28.9119 41.332 29.875 42.5937 30.912 43.7813C28.6524 46.0695 26.5317 47.3232 25.0895 47.3232C24.8174 47.3265 24.5488 47.2564 24.3075 47.1194V47.1179ZM40.7465 41.3634C41.0723 44.2491 40.67 46.4925 39.7336 47.0885C39.5267 47.2244 39.2562 47.2846 38.9374 47.2846C37.5023 47.2846 35.3745 46.0386 33.1149 43.7643C34.1476 42.5817 35.1042 41.3229 35.978 39.9969C37.4629 39.8311 38.9355 39.5536 40.3853 39.1662C40.5453 39.929 40.6686 40.6608 40.7465 41.3634ZM43.4141 36.3253C42.8191 36.6047 42.1674 36.8549 41.4945 37.088C41.0709 35.5182 40.5502 33.9815 39.9362 32.4884C40.5737 30.9182 41.0851 29.385 41.4732 27.912C42.1335 28.1348 42.7835 28.3919 43.4212 28.6825C45.8748 29.8219 47.4615 31.3181 47.4615 32.5039C47.4544 33.6897 45.8677 35.1935 43.4141 36.3253Z" fill="black"/>
<path d="M32.1507 36.3148C32.9864 36.3148 33.7878 35.8767 34.3786 35.0971C34.9695 34.3174 35.3015 33.26 35.3015 32.1574C35.3015 31.0548 34.9695 29.9973 34.3786 29.2177C33.7878 28.438 32.9864 28 32.1507 28C31.3151 28 30.5137 28.438 29.9228 29.2177C29.332 29.9973 29 31.0548 29 32.1574C29 33.26 29.332 34.3174 29.9228 35.0971C30.5137 35.8767 31.3151 36.3148 32.1507 36.3148Z" fill="black"/>
<defs>
<filter id="filter0_d_16_317" x="0" y="0" width="67" height="68" filterUnits="userSpaceOnUse" color-interpolation-filters="sRGB">
<feFlood flood-opacity="0" result="BackgroundImageFix"/>
<feColorMatrix in="SourceAlpha" type="matrix" values="0 0 0 0 0 0 0 0 0 0 0 0 0 0 0 0 0 0 127 0" result="hardAlpha"/>
<feOffset dx="3" dy="4"/>
<feComposite in2="hardAlpha" operator="out"/>
<feColorMatrix type="matrix" values="0 0 0 0 0.0555986 0 0 0 0 0.149942 0 0 0 0 0.140011 0 0 0 1 0"/>
<feBlend mode="normal" in2="BackgroundImageFix" result="effect1_dropShadow_16_317"/>
<feBlend mode="normal" in="SourceGraphic" in2="effect1_dropShadow_16_317" result="shape"/>
</filter>
</defs>
</svg>
