<svg width="67" height="68" viewBox="0 0 67 68" fill="none" xmlns="http://www.w3.org/2000/svg">
<g filter="url(#filter0_d_16_319)">
<circle cx="32" cy="32" r="32" fill="#8CE6DB"/>
<circle cx="32" cy="32" r="31.5" stroke="#133834"/>
</g>
<path d="M38.5569 13.341C38.3988 13.341 38.2915 13.3693 38.1801 13.4078V13.4341H38.1994C38.2736 13.6447 38.4001 13.7986 38.4936 13.9869C38.5679 14.2036 38.6311 14.4203 38.7054 14.6349L38.7246 14.6045C38.8539 14.4709 38.9171 14.2562 38.9171 13.9302C38.8621 13.8351 38.8539 13.7399 38.8071 13.6467C38.7521 13.5111 38.6339 13.4443 38.5596 13.3369L38.5569 13.341ZM23.9338 40.0578H22.6591C22.6233 37.0746 22.4994 34.0952 22.2879 31.1279H22.2769L20.3381 40.0578H19.3688L17.4437 31.1279H17.43C17.2794 34.0999 17.19 37.0779 17.1619 40.0578H16C16.0756 36.0768 16.264 32.3428 16.5637 28.86H18.145L19.9806 37.0893H19.9916L21.8438 28.86H23.3494C23.6821 32.9402 23.8774 36.6762 23.9379 40.0578H23.9338ZM29.4571 31.7961C28.9374 35.9371 28.2526 38.9502 27.4056 40.8273C26.7429 42.2771 26.0169 43 25.229 43C25.0186 43 24.7615 42.9069 24.4508 42.7206V41.7202C24.602 41.7547 24.7808 41.7729 24.9815 41.7729C25.35 41.7729 25.6456 41.621 25.8711 41.3234C26.142 40.9589 26.2767 40.5498 26.2767 40.0983C26.2767 39.7844 26.1709 39.1466 25.9605 38.1868L24.5662 31.7961H25.8175L26.8171 36.5749C27.0426 37.6603 27.1375 38.4176 27.099 38.8489C27.649 36.6944 28.0312 34.3394 28.2471 31.7961H29.4571ZM46.404 40.0578H42.7878V28.86H44.0046V38.6808H46.404V40.0578ZM41.839 40.3312L40.442 39.3187C40.5657 39.1648 40.6854 38.9988 40.7926 38.8125C41.388 37.7879 41.6836 36.2651 41.6836 34.2503C41.6836 30.5447 40.6964 28.6899 38.7205 28.6899C37.7525 28.6899 36.9963 29.1597 36.4517 30.1013C35.8605 31.1299 35.5635 32.6446 35.5635 34.6472C35.5635 36.6154 35.8248 38.0612 36.3528 38.9805C36.834 39.8107 37.5586 40.2259 38.5294 40.2259C38.8924 40.2259 39.2251 40.159 39.5263 40.0274L41.3481 41.5907L41.8431 40.3312H41.839ZM37.3125 37.8162C37.0031 37.0872 36.8491 35.9128 36.8491 34.3009C36.8491 31.4802 37.4321 30.0689 38.5954 30.0689C39.2045 30.0689 39.6541 30.407 39.9387 31.0813C40.2467 31.8143 40.4008 32.9766 40.4008 34.5703C40.4008 37.4132 39.8177 38.8388 38.6545 38.8388C38.0426 38.8388 37.5958 38.5006 37.3097 37.8263L37.3125 37.8162ZM35.0327 36.9556C35.0327 37.9073 34.7962 38.6889 34.3232 39.2964C33.8503 39.9039 33.2191 40.2076 32.4202 40.2076C31.6736 40.2076 30.9573 39.8593 30.2574 39.1648L30.5833 38.2009C31.1855 38.6464 31.7286 38.8651 32.2195 38.8651C32.676 38.8651 33.0349 38.7173 33.2961 38.4196C33.4267 38.2747 33.5321 38.0863 33.6038 37.8698C33.6755 37.6534 33.7114 37.4151 33.7086 37.1743C33.7086 36.5061 33.3924 35.9391 32.8176 35.4632C32.2841 35.0319 31.2185 34.1329 31.2185 34.1329C30.6382 33.5112 30.3495 32.845 30.3495 31.7495C30.3495 30.8383 30.5654 30.1094 30.9958 29.5525C31.4289 28.9896 31.9858 28.7122 32.6733 28.7122C33.3773 28.7122 34.0208 28.9875 34.5982 29.5424L34.3054 30.5062C33.8439 30.2077 33.3463 30.0493 32.8424 30.0405C32.4532 30.0405 32.1521 30.1782 31.9431 30.4576C31.8371 30.587 31.7516 30.7491 31.6926 30.9324C31.6337 31.1157 31.6028 31.3159 31.6021 31.5187C31.6021 32.1829 31.9239 32.7539 32.5179 33.2399C33.0582 33.6752 34.15 34.5966 34.15 34.5966C34.7454 35.2142 35.041 35.8723 35.041 36.9617L35.0327 36.9556ZM47.933 25.1058C47.1974 25.0774 46.6268 25.1868 46.1496 25.4865C46.0121 25.5675 45.7921 25.5675 45.7729 25.8246C45.8485 25.9319 45.8595 26.1081 45.9241 26.258C46.0341 26.5293 46.2239 26.8918 46.3999 27.0821C46.5924 27.3048 46.7849 27.5195 46.987 27.7098C47.3445 28.0338 47.7501 28.2262 48.1007 28.5522C48.3001 28.7425 48.5036 28.9835 48.7057 29.186C48.8061 29.2872 48.8708 29.4695 49 29.5343V29.4938C48.9367 29.3723 48.9175 29.1961 48.8556 29.0604C48.7635 28.9248 48.6714 28.8033 48.5806 28.6696C48.3107 28.1457 47.9885 27.6849 47.625 27.3028C47.3307 27.0072 46.6873 26.5941 46.5662 26.098L46.5484 26.0696C46.7491 26.0433 46.9884 25.936 47.1809 25.855C47.493 25.7335 47.779 25.7598 48.1021 25.6404C48.2479 25.5857 48.395 25.5189 48.5421 25.45V25.3285C48.3771 25.0855 48.2534 24.7555 48.0829 24.5287C47.607 23.9161 47.0994 23.3589 46.5649 22.8622C46.2761 22.5908 45.9104 22.4167 45.6065 22.1858C45.4965 22.1048 45.3122 22.0643 45.249 21.9287C45.084 21.633 44.9877 21.2402 44.8709 20.8879C44.6009 20.1165 44.35 19.331 44.1188 18.5329C43.9538 18.0023 43.8534 17.4738 43.6513 16.9879C42.7025 14.6855 41.6754 13.2904 40.0955 11.9256C39.7559 11.6421 39.3489 11.5206 38.9185 11.3707C38.6889 11.3545 38.4592 11.3302 38.231 11.3161C38.0797 11.2209 37.934 10.9637 37.8048 10.8402C37.2822 10.3542 35.9292 9.30126 35.5443 10.6944C35.2967 11.5732 35.9114 12.4399 36.1245 12.8854C36.2826 13.1952 36.482 13.5495 36.592 13.8978C36.6566 14.1327 36.6745 14.3737 36.7391 14.6187C36.8849 15.214 37.0238 15.8782 37.2163 16.4351C37.3166 16.7185 37.4266 17.0162 37.5559 17.2714C37.6301 17.4192 37.7566 17.488 37.7855 17.731C37.6562 18.0064 37.648 18.4073 37.5737 18.7435C37.2437 20.2763 37.373 22.1717 37.8405 23.2995C37.9876 23.6357 38.3382 24.3809 38.8071 24.0953C39.2196 23.8523 39.1289 23.0829 39.2471 22.4045C39.2746 22.2425 39.2568 22.1352 39.3131 22.0259V22.0562C39.4424 22.4369 39.5716 22.7994 39.6899 23.1801C39.9731 23.8442 40.4681 24.5327 40.882 24.9924C41.102 25.2354 41.2766 25.6566 41.5516 25.8064V25.7659H41.531C41.4719 25.6485 41.3935 25.5918 41.3193 25.4966C41.1449 25.2452 40.984 24.9745 40.838 24.6866C40.4506 23.9071 40.1071 23.0822 39.8109 22.2203C39.6596 21.795 39.5331 21.3374 39.4121 20.9182C39.3571 20.7562 39.3571 20.5133 39.265 20.4323C39.1275 20.7279 38.9254 20.9851 38.825 21.3495C38.6504 21.9327 38.6325 22.6495 38.5665 23.3947C38.5294 23.4089 38.5473 23.3947 38.5294 23.4231C38.2351 23.3178 38.1348 22.8682 38.0247 22.4916C37.7498 21.5298 37.7044 19.9847 37.9422 18.8771C38.0069 18.5936 38.2819 17.6986 38.1719 17.4273C38.1141 17.1701 37.9326 17.0223 37.8323 16.8137C37.7031 16.5423 37.5926 16.2526 37.5022 15.9491C37.2822 15.1918 37.1723 14.3534 36.933 13.5961C36.823 13.2458 36.6305 12.8793 36.4738 12.5573C36.2991 12.1929 36.1066 11.9357 35.9678 11.5044C35.9224 11.3566 35.8577 11.1115 35.9306 10.9496C35.9499 10.8402 35.9884 10.7977 36.0599 10.7673C36.1809 10.6215 36.5205 10.8119 36.6401 10.8929C36.9797 11.0953 37.2658 11.2857 37.5504 11.5692C37.6796 11.7028 37.8185 11.96 37.9835 12.0268H38.176C38.4703 12.122 38.8016 12.0552 39.0766 12.1746C39.5648 12.4055 40.0048 12.7416 40.3994 13.1061C41.6153 14.25 42.6044 15.8469 43.2663 17.7351C43.3762 18.0469 43.4244 18.3324 43.5247 18.6564C43.7172 19.3246 43.9551 19.9989 44.1504 20.6449C44.3429 21.2827 44.5285 21.9327 44.8049 22.4612C44.9424 22.7447 45.4951 22.8925 45.7426 23.0404C45.9255 23.1618 46.2101 23.2732 46.3751 23.421C46.6914 23.7045 46.9994 24.0285 47.2964 24.3404C47.4476 24.4942 47.9055 24.8324 47.933 25.1058Z" fill="black"/>
<defs>
<filter id="filter0_d_16_319" x="0" y="0" width="67" height="68" filterUnits="userSpaceOnUse" color-interpolation-filters="sRGB">
<feFlood flood-opacity="0" result="BackgroundImageFix"/>
<feColorMatrix in="SourceAlpha" type="matrix" values="0 0 0 0 0 0 0 0 0 0 0 0 0 0 0 0 0 0 127 0" result="hardAlpha"/>
<feOffset dx="3" dy="4"/>
<feComposite in2="hardAlpha" operator="out"/>
<feColorMatrix type="matrix" values="0 0 0 0 0.0555986 0 0 0 0 0.149942 0 0 0 0 0.140011 0 0 0 1 0"/>
<feBlend mode="normal" in2="BackgroundImageFix" result="effect1_dropShadow_16_319"/>
<feBlend mode="normal" in="SourceGraphic" in2="effect1_dropShadow_16_319" result="shape"/>
</filter>
</defs>
</svg>
