<svg width="102" height="67" viewBox="0 0 102 67" fill="none" xmlns="http://www.w3.org/2000/svg">
<g filter="url(#filter0_d_3_237)">
<path d="M59.5173 25.9154C59.6128 25.5974 59.6627 25.2693 59.6627 24.9339C59.6627 22.0501 55.9752 19.7123 51.4262 19.7123C48.643 19.7123 46.1821 20.5875 44.6913 21.9275C43.2599 21.1657 41.4138 20.7069 39.3987 20.7069C34.8935 20.7069 31.2331 23 31.1633 25.8455H31.1623C26.108 25.8455 22.0107 28.443 22.0107 31.6473C22.0107 34.8516 26.108 37.4491 31.1623 37.4491H58.0939C63.1481 37.4491 67.2453 34.8516 67.2453 31.6473C67.2453 28.75 63.8956 26.3489 59.5173 25.9154Z" fill="#D9EBE2"/>
<path d="M87.9999 12.7956L75.7771 8.03349L58.4303 16.7106L63.7317 18.7761L49.5844 26.8989L78.3007 19.3071L72.852 17.1842L87.9999 12.7956Z" fill="#7185DD"/>
<path d="M6.75521e-05 12.7956L12.2229 8.03349L29.5697 16.7106L24.2683 18.7761L38.4156 26.8989L9.6993 19.3071L15.148 17.1842L6.75521e-05 12.7956Z" fill="#7185DD"/>
<path d="M86.2668 47.5559L74.044 52.318L56.6971 43.6409L61.9986 41.5754L47.8512 33.4526L76.5675 41.0444L71.1188 43.1673L86.2668 47.5559Z" fill="#7185DD"/>
<path d="M55.3222 0.996092L41.2564 2.88779L38.3446 16.6925L44.4455 15.872L43.2263 27.8841L55.5277 9.91052L49.2573 10.7538L55.3222 0.996092Z" fill="#61AC85"/>
<path fill-rule="evenodd" clip-rule="evenodd" d="M65.5122 30.5393C65.5122 30.5393 55.7741 39.0813 43.7615 39.0813C31.7489 39.0813 22.0107 30.5393 22.0107 30.5393C22.0107 30.5393 31.7489 21.9973 43.7615 21.9973C55.7741 21.9973 65.5122 30.5393 65.5122 30.5393ZM53.6886 30.5393C53.6886 33.9717 49.2442 36.7542 43.7615 36.7542C38.2787 36.7542 33.8342 33.9717 33.8342 30.5393C33.8342 27.107 38.2787 24.3244 43.7615 24.3244C49.2442 24.3244 53.6886 27.107 53.6886 30.5393ZM43.7615 34.1006C46.9033 34.1006 49.4501 32.5061 49.4501 30.5393C49.4501 28.5725 46.9033 26.978 43.7615 26.978C40.6197 26.978 38.0728 28.5725 38.0728 30.5393C38.0728 32.5061 40.6197 34.1006 43.7615 34.1006Z" fill="#131F50"/>
<path fill-rule="evenodd" clip-rule="evenodd" d="M43.6748 42.3458C43.637 35.8033 35.1937 30.5069 24.7837 30.5069C35.2169 30.5069 43.6748 25.1867 43.6748 18.6241C43.7124 25.1666 52.1558 30.463 62.5658 30.463C52.1324 30.463 43.6748 35.7831 43.6748 42.3458Z" fill="#F59E0B"/>
</g>
<defs>
<filter id="filter0_d_3_237" x="0" y="0.996094" width="102" height="67.7891" filterUnits="userSpaceOnUse" color-interpolation-filters="sRGB">
<feFlood flood-opacity="0" result="BackgroundImageFix"/>
<feColorMatrix in="SourceAlpha" type="matrix" values="0 0 0 0 0 0 0 0 0 0 0 0 0 0 0 0 0 0 127 0" result="hardAlpha"/>
<feOffset dx="14" dy="14"/>
<feComposite in2="hardAlpha" operator="out"/>
<feColorMatrix type="matrix" values="0 0 0 0 0 0 0 0 0 0 0 0 0 0 0 0 0 0 0.25 0"/>
<feBlend mode="normal" in2="BackgroundImageFix" result="effect1_dropShadow_3_237"/>
<feBlend mode="normal" in="SourceGraphic" in2="effect1_dropShadow_3_237" result="shape"/>
</filter>
</defs>
</svg>
